<svg width="417" height="89" viewBox="0 0 417 89" fill="none" xmlns="http://www.w3.org/2000/svg">
<rect width="417" height="89" fill="#050505"/>
<path d="M19.7054 10.1735C21.0802 6.59903 30.8871 0 30.8871 0C30.8871 0 34.0033 11.8233 32.7202 15.3061C31.4371 18.8806 27.496 20.5303 23.9215 19.1555C20.2554 17.6891 18.4223 13.6563 19.7054 10.1735Z" fill="#8CC63E"/>
<path d="M13.9313 17.2308C12.2815 13.8396 14.6645 2.10802 14.6645 2.10802C14.6645 2.10802 25.113 8.24878 26.6711 11.7316C28.2292 15.1228 26.6711 19.1555 23.0966 20.7136C19.6138 22.1801 15.4894 20.622 13.9313 17.2308Z" fill="#64892F"/>
<path d="M17.1391 13.9313C13.748 12.3732 2.10802 14.6645 2.10802 14.6645C2.10802 14.6645 8.24878 25.2046 11.64 26.8544C15.0311 28.4125 19.0639 26.8544 20.5303 23.2799C22.0884 19.7054 20.5303 15.4894 17.1391 13.9313Z" fill="#8CC63E"/>
<path d="M10.0819 19.7971C6.59903 21.1719 0 31.0704 0 31.0704C0 31.0704 11.7316 34.1867 15.3061 32.9035C18.7889 31.6204 20.5303 27.5876 19.0639 24.0131C17.5974 20.347 13.6563 18.514 10.0819 19.7971Z" fill="#64892F"/>
<path d="M45.3683 13.473C55.9085 24.1048 57.1 47.1098 52.1507 52.1507C47.1098 57.1916 24.2881 55.9085 13.6563 45.2767C5.86581 37.4862 9.53193 25.6629 17.5974 17.5058C25.7546 9.34863 37.5778 5.6825 45.3683 13.473Z" fill="#EF4D3C"/>
<path d="M35.4698 12.5565C35.0115 12.5565 34.5533 12.7398 34.2783 13.1064C33.82 13.8396 34.1867 14.9395 35.2865 15.6727C35.8364 16.0393 36.3863 16.2226 36.8446 16.2226C37.3029 16.2226 37.7611 16.0393 37.9444 15.6727C38.4027 14.9395 38.0361 13.8396 36.9362 13.1064C36.5696 12.7398 36.0197 12.5565 35.4698 12.5565ZM38.861 28.5958C38.586 28.5958 38.311 28.6875 38.0361 28.8708C37.3945 29.4207 37.5778 30.6122 38.311 31.6204C38.861 32.2619 39.5942 32.6285 40.1441 32.6285C40.4191 32.6285 40.694 32.5369 40.969 32.3536C41.6106 31.8037 41.4273 30.6122 40.694 29.604C40.1441 28.9624 39.4109 28.5958 38.861 28.5958ZM30.9788 20.7136C30.7038 20.7136 30.4289 20.8053 30.1539 20.9886C29.5123 21.5385 29.604 22.73 30.4289 23.7382C30.9788 24.3798 31.712 24.7464 32.2619 24.7464C32.5369 24.7464 32.8119 24.6547 33.0868 24.4714C33.7284 23.9215 33.6367 22.73 32.8119 21.7218C32.2619 21.0802 31.5287 20.7136 30.9788 20.7136ZM44.4518 21.6302C44.2685 21.6302 44.0852 21.6302 43.9019 21.7218C43.1687 22.0884 43.077 23.3716 43.6269 24.4714C44.0852 25.2963 44.8184 25.8462 45.5517 25.8462C45.735 25.8462 45.9183 25.8462 46.1016 25.7546C46.8348 25.3879 46.9265 24.1048 46.3765 23.005C45.9183 22.1801 45.0934 21.6302 44.4518 21.6302ZM48.6679 33.7284H48.3929C47.568 33.9117 47.1098 35.1032 47.4764 36.2947C47.7513 37.3945 48.4846 38.1277 49.3094 38.1277H49.5844C50.4093 37.9444 50.8675 36.7529 50.5009 35.5614C50.1343 34.4616 49.4011 33.7284 48.6679 33.7284ZM47.568 45.0934C47.2931 45.0934 46.9265 45.185 46.7431 45.3683C46.1016 45.9183 46.2849 47.2014 47.1098 48.1179C47.6597 48.7595 48.3929 49.0345 48.9428 49.0345C49.2178 49.0345 49.5844 48.9428 49.7677 48.7595C50.4093 48.2096 50.226 46.9264 49.4011 46.0099C48.8512 45.46 48.2096 45.0934 47.568 45.0934ZM27.221 43.7186C26.7627 43.7186 26.3045 43.9019 26.0295 44.2685C25.5713 45.0017 26.0295 46.1016 27.0377 46.8348C27.5876 47.2014 28.1375 47.3847 28.5958 47.3847C29.0541 47.3847 29.5123 47.2014 29.7873 46.8348C30.2456 46.1016 29.7873 45.0017 28.7791 44.2685C28.3208 43.9019 27.7709 43.7186 27.221 43.7186ZM16.6809 40.694C16.131 40.694 15.7644 40.8773 15.4894 41.2439C15.0311 41.9772 15.4894 43.077 16.4976 43.8102C17.0475 44.1768 17.5974 44.3602 18.0557 44.3602C18.514 44.3602 18.9722 44.1768 19.2472 43.8102C19.7054 43.077 19.2472 41.9772 18.239 41.2439C17.6891 40.8773 17.1392 40.694 16.6809 40.694ZM36.2947 48.1179C35.5615 48.1179 35.0115 48.3929 34.7366 48.9428C34.4616 49.7677 35.1032 50.7759 36.2947 51.2341C36.6613 51.4175 37.1196 51.5091 37.4862 51.5091C38.2194 51.5091 38.7693 51.2341 39.0443 50.6842C39.3192 49.8594 38.6777 48.8512 37.4862 48.3929C37.1196 48.2096 36.6613 48.1179 36.2947 48.1179ZM38.4027 38.9526C37.8528 38.9526 37.3945 39.1359 37.1196 39.5942C36.6613 40.3274 37.2112 41.4273 38.311 42.0688C38.7693 42.3438 39.3192 42.5271 39.7775 42.5271C40.3274 42.5271 40.7857 42.3438 41.0606 41.8855C41.5189 41.1523 40.969 40.0525 39.8692 39.4109C39.3192 39.1359 38.861 38.9526 38.4027 38.9526ZM28.5958 32.4452C28.1375 32.4452 27.7709 32.6285 27.5876 32.9035C27.0377 33.5451 27.4043 34.7366 28.3208 35.5614C28.8708 36.0197 29.5123 36.203 30.0623 36.203C30.5205 36.203 30.8871 36.0197 31.0704 35.7448C31.6204 35.1032 31.2537 33.9117 30.3372 33.0868C29.7873 32.7202 29.1457 32.4452 28.5958 32.4452ZM20.622 20.0721C20.2554 20.0721 19.9804 20.1637 19.7054 20.4387C19.0639 21.0802 19.3388 22.2717 20.1637 23.0966C20.7136 23.6465 21.3552 23.9215 21.9968 23.9215C22.3634 23.9215 22.6383 23.8298 22.9133 23.5549C23.5549 22.9133 23.2799 21.7218 22.455 20.8969C21.9051 20.347 21.2636 20.0721 20.622 20.0721ZM18.0557 29.9706C17.5974 29.9706 17.2308 30.1539 16.9558 30.4289C16.4059 31.0704 16.7725 32.2619 17.7807 33.0868C18.3306 33.5451 18.9722 33.7284 19.4305 33.7284C19.8888 33.7284 20.2554 33.5451 20.5303 33.2701C21.0802 32.6285 20.7136 31.4371 19.7054 30.6122C19.1555 30.2456 18.514 29.9706 18.0557 29.9706Z" fill="#050505"/>
<path d="M80.6534 25.0909H86.8182V61.483C86.8182 64.7311 86.2216 67.4903 85.0284 69.7607C83.8352 72.031 82.1532 73.7545 79.9822 74.9311C77.8113 76.1077 75.2509 76.696 72.3011 76.696C69.517 76.696 67.0395 76.1906 64.8686 75.1797C62.6977 74.1522 60.9908 72.6939 59.7479 70.8047C58.505 68.9155 57.8835 66.67 57.8835 64.0682H63.9489C63.9489 65.5099 64.3052 66.7694 65.0178 67.8466C65.7469 68.9072 66.7412 69.7358 68.0007 70.3324C69.2602 70.929 70.6937 71.2273 72.3011 71.2273C74.0743 71.2273 75.5824 70.8544 76.8253 70.1087C78.0682 69.3629 79.0128 68.2692 79.6591 66.8274C80.322 65.3691 80.6534 63.5876 80.6534 61.483V25.0909ZM109.613 76.8949C107.193 76.8949 104.998 76.4392 103.026 75.5277C101.054 74.5997 99.4875 73.2656 98.3274 71.5256C97.1674 69.7689 96.5874 67.6477 96.5874 65.1619C96.5874 62.9744 97.0182 61.2012 97.88 59.8423C98.7417 58.4669 99.8935 57.3897 101.335 56.6108C102.777 55.8319 104.368 55.2519 106.108 54.8707C107.865 54.473 109.629 54.1581 111.403 53.9261C113.723 53.6278 115.604 53.4041 117.045 53.255C118.504 53.0893 119.564 52.8158 120.227 52.4347C120.907 52.0535 121.246 51.3906 121.246 50.446V50.2472C121.246 47.7945 120.575 45.8887 119.233 44.5298C117.907 43.1709 115.894 42.4915 113.192 42.4915C110.392 42.4915 108.196 43.1046 106.605 44.331C105.014 45.5573 103.896 46.8665 103.249 48.2585L97.6811 46.2699C98.6754 43.9498 100.001 42.1435 101.658 40.8509C103.332 39.5417 105.155 38.6302 107.127 38.1165C109.116 37.5862 111.071 37.321 112.994 37.321C114.22 37.321 115.629 37.4702 117.219 37.7685C118.827 38.0502 120.376 38.6385 121.868 39.5334C123.376 40.4283 124.627 41.7789 125.621 43.5852C126.616 45.3916 127.113 47.8111 127.113 50.8438V76H121.246V70.8295H120.948C120.55 71.6581 119.888 72.5447 118.96 73.4893C118.031 74.4339 116.797 75.2377 115.256 75.9006C113.714 76.5634 111.834 76.8949 109.613 76.8949ZM110.508 71.625C112.828 71.625 114.783 71.1693 116.374 70.2578C117.982 69.3464 119.192 68.1697 120.004 66.728C120.832 65.2862 121.246 63.7699 121.246 62.179V56.8097C120.998 57.108 120.451 57.3814 119.606 57.63C118.777 57.862 117.816 58.0691 116.722 58.2514C115.645 58.4171 114.593 58.5663 113.565 58.6989C112.554 58.8149 111.734 58.9143 111.104 58.9972C109.58 59.196 108.155 59.5192 106.829 59.9666C105.52 60.3975 104.459 61.0521 103.647 61.9304C102.852 62.7921 102.454 63.9687 102.454 65.4602C102.454 67.4986 103.208 69.0398 104.716 70.0838C106.241 71.1113 108.171 71.625 110.508 71.625ZM153.829 76.7955C150.15 76.7955 146.977 75.9834 144.308 74.3594C141.657 72.7188 139.61 70.4318 138.169 67.4986C136.743 64.5488 136.031 61.1184 136.031 57.2074C136.031 53.2964 136.743 49.8494 138.169 46.8665C139.61 43.867 141.615 41.5303 144.184 39.8565C146.769 38.1662 149.785 37.321 153.232 37.321C155.221 37.321 157.185 37.6525 159.124 38.3153C161.063 38.9782 162.828 40.0554 164.419 41.5469C166.009 43.0218 167.277 44.9773 168.222 47.4134C169.166 49.8494 169.639 52.849 169.639 56.4119V58.8977H140.207V53.8267H163.673C163.673 51.6723 163.242 49.75 162.38 48.0597C161.535 46.3693 160.325 45.0353 158.751 44.0575C157.193 43.0798 155.354 42.5909 153.232 42.5909C150.896 42.5909 148.874 43.1709 147.167 44.331C145.477 45.4744 144.176 46.9659 143.264 48.8054C142.353 50.6449 141.897 52.6169 141.897 54.7216V58.1023C141.897 60.9858 142.394 63.4302 143.389 65.4354C144.4 67.424 145.8 68.9403 147.59 69.9844C149.379 71.0118 151.459 71.5256 153.829 71.5256C155.37 71.5256 156.762 71.3101 158.005 70.8793C159.265 70.4318 160.35 69.7689 161.262 68.8906C162.173 67.9957 162.877 66.8854 163.374 65.5597L169.042 67.1506C168.445 69.0729 167.443 70.7633 166.034 72.2216C164.626 73.6634 162.886 74.7902 160.814 75.6023C158.743 76.3977 156.414 76.7955 153.829 76.7955ZM184.429 53.0312V76H178.563V25.0909H184.429V43.7841H184.926C185.821 41.812 187.164 40.246 188.953 39.0859C190.76 37.9093 193.163 37.321 196.162 37.321C198.764 37.321 201.043 37.843 202.998 38.8871C204.954 39.9145 206.47 41.4972 207.547 43.6349C208.641 45.7562 209.188 48.4574 209.188 51.7386V76H203.321V52.1364C203.321 49.1037 202.534 46.7588 200.96 45.1016C199.402 43.4278 197.239 42.5909 194.472 42.5909C192.549 42.5909 190.826 42.9969 189.301 43.8089C187.793 44.621 186.6 45.8059 185.722 47.3636C184.86 48.9214 184.429 50.8106 184.429 53.0312ZM235.431 76.7955C231.984 76.7955 228.96 75.9751 226.358 74.3345C223.773 72.6939 221.751 70.3987 220.293 67.4489C218.851 64.4991 218.13 61.0521 218.13 57.108C218.13 53.1307 218.851 49.6589 220.293 46.6925C221.751 43.7261 223.773 41.4226 226.358 39.782C228.96 38.1413 231.984 37.321 235.431 37.321C238.878 37.321 241.895 38.1413 244.48 39.782C247.082 41.4226 249.103 43.7261 250.545 46.6925C252.003 49.6589 252.733 53.1307 252.733 57.108C252.733 61.0521 252.003 64.4991 250.545 67.4489C249.103 70.3987 247.082 72.6939 244.48 74.3345C241.895 75.9751 238.878 76.7955 235.431 76.7955ZM235.431 71.5256C238.05 71.5256 240.204 70.8544 241.895 69.5121C243.585 68.1697 244.836 66.4048 245.648 64.2173C246.46 62.0298 246.866 59.66 246.866 57.108C246.866 54.5559 246.46 52.1778 245.648 49.9737C244.836 47.7696 243.585 45.9882 241.895 44.6293C240.204 43.2704 238.05 42.5909 235.431 42.5909C232.813 42.5909 230.659 43.2704 228.968 44.6293C227.278 45.9882 226.027 47.7696 225.215 49.9737C224.403 52.1778 223.997 54.5559 223.997 57.108C223.997 59.66 224.403 62.0298 225.215 64.2173C226.027 66.4048 227.278 68.1697 228.968 69.5121C230.659 70.8544 232.813 71.5256 235.431 71.5256ZM282.171 76V25.0909H299.372C303.366 25.0909 306.631 25.8118 309.166 27.2535C311.718 28.6787 313.608 30.6094 314.834 33.0455C316.06 35.4815 316.673 38.1993 316.673 41.1989C316.673 44.1984 316.06 46.9245 314.834 49.3771C313.624 51.8298 311.752 53.7853 309.216 55.2436C306.681 56.6854 303.432 57.4062 299.472 57.4062H287.142V51.9375H299.273C302.007 51.9375 304.203 51.4652 305.86 50.5206C307.517 49.576 308.719 48.3 309.465 46.6925C310.227 45.0684 310.608 43.2372 310.608 41.1989C310.608 39.1605 310.227 37.3376 309.465 35.7301C308.719 34.1226 307.509 32.8632 305.835 31.9517C304.162 31.0237 301.941 30.5597 299.173 30.5597H288.335V76H282.171ZM326.604 76V25.0909H357.13V30.5597H332.769V47.7614H354.843V53.2301H332.769V76H326.604Z" fill="#F9F3F3"/>
</svg>
