<svg width="417" height="89" viewBox="0 0 417 89" fill="none" xmlns="http://www.w3.org/2000/svg">
<rect width="417" height="89" fill="#EC9B2A"/>
<path d="M19.7054 10.1735C21.0802 6.59903 30.8871 0 30.8871 0C30.8871 0 34.0033 11.8233 32.7202 15.3061C31.4371 18.8806 27.496 20.5303 23.9215 19.1555C20.2554 17.6891 18.4223 13.6563 19.7054 10.1735Z" fill="#8CC63E"/>
<path d="M13.9313 17.2308C12.2815 13.8396 14.6645 2.10802 14.6645 2.10802C14.6645 2.10802 25.113 8.24878 26.6711 11.7316C28.2292 15.1228 26.6711 19.1555 23.0966 20.7136C19.6138 22.1801 15.4894 20.622 13.9313 17.2308Z" fill="#64892F"/>
<path d="M17.1391 13.9313C13.748 12.3732 2.10802 14.6645 2.10802 14.6645C2.10802 14.6645 8.24878 25.2046 11.64 26.8544C15.0311 28.4125 19.0639 26.8544 20.5303 23.2799C22.0884 19.7054 20.5303 15.4894 17.1391 13.9313Z" fill="#8CC63E"/>
<path d="M10.0819 19.7971C6.59903 21.1719 0 31.0704 0 31.0704C0 31.0704 11.7316 34.1867 15.3061 32.9035C18.7889 31.6204 20.5303 27.5876 19.0639 24.0131C17.5974 20.347 13.6563 18.514 10.0819 19.7971Z" fill="#64892F"/>
<path d="M45.3683 13.473C55.9085 24.1048 57.1 47.1098 52.1507 52.1507C47.1098 57.1916 24.2881 55.9085 13.6563 45.2767C5.86581 37.4862 9.53193 25.6629 17.5974 17.5058C25.7546 9.34863 37.5778 5.6825 45.3683 13.473Z" fill="#EF4D3C"/>
<path d="M35.1585 13C34.7002 13 34.2419 13.1833 33.967 13.5499C33.5087 14.2831 33.8753 15.383 34.9752 16.1162C35.5251 16.4828 36.075 16.6661 36.5333 16.6661C36.9915 16.6661 37.4498 16.4828 37.6331 16.1162C38.0914 15.383 37.7247 14.2831 36.6249 13.5499C36.2583 13.1833 35.7084 13 35.1585 13ZM38.5496 29.0393C38.2747 29.0393 37.9997 29.131 37.7247 29.3143C37.0832 29.8642 37.2665 31.0557 37.9997 32.0639C38.5496 32.7054 39.2829 33.0721 39.8328 33.0721C40.1077 33.0721 40.3827 32.9804 40.6577 32.7971C41.2992 32.2472 41.1159 31.0557 40.3827 30.0475C39.8328 29.4059 39.0995 29.0393 38.5496 29.0393ZM30.6674 21.1571C30.3925 21.1571 30.1175 21.2488 29.8426 21.4321C29.201 21.982 29.2927 23.1735 30.1175 24.1817C30.6675 24.8233 31.4007 25.1899 31.9506 25.1899C32.2256 25.1899 32.5005 25.0982 32.7755 24.9149C33.417 24.365 33.3254 23.1735 32.5005 22.1653C31.9506 21.5238 31.2174 21.1571 30.6674 21.1571ZM44.1405 22.0737C43.9572 22.0737 43.7739 22.0737 43.5906 22.1653C42.8573 22.5319 42.7657 23.8151 43.3156 24.9149C43.7739 25.7398 44.5071 26.2897 45.2403 26.2897C45.4236 26.2897 45.6069 26.2897 45.7902 26.1981C46.5235 25.8315 46.6151 24.5483 46.0652 23.4485C45.6069 22.6236 44.782 22.0737 44.1405 22.0737ZM48.3565 34.1719H48.0816C47.2567 34.3552 46.7984 35.5467 47.165 36.7382C47.44 37.838 48.1732 38.5712 48.9981 38.5712H49.2731C50.0979 38.3879 50.5562 37.1965 50.1896 36.005C49.823 34.9051 49.0897 34.1719 48.3565 34.1719ZM47.2567 45.5369C46.9817 45.5369 46.6151 45.6285 46.4318 45.8119C45.7902 46.3618 45.9735 47.6449 46.7984 48.5615C47.3483 49.203 48.0816 49.478 48.6315 49.478C48.9064 49.478 49.2731 49.3863 49.4564 49.203C50.0979 48.6531 49.9146 47.37 49.0898 46.4534C48.5398 45.9035 47.8983 45.5369 47.2567 45.5369ZM26.9097 44.1621C26.4514 44.1621 25.9931 44.3454 25.7182 44.712C25.2599 45.4452 25.7182 46.5451 26.7264 47.2783C27.2763 47.6449 27.8262 47.8282 28.2845 47.8282C28.7427 47.8282 29.201 47.6449 29.476 47.2783C29.9342 46.5451 29.476 45.4452 28.4678 44.712C28.0095 44.3454 27.4596 44.1621 26.9097 44.1621ZM16.3695 41.1375C15.8196 41.1375 15.453 41.3208 15.1781 41.6875C14.7198 42.4207 15.1781 43.5205 16.1862 44.2537C16.7362 44.6204 17.2861 44.8037 17.7443 44.8037C18.2026 44.8037 18.6609 44.6204 18.9358 44.2537C19.3941 43.5205 18.9358 42.4207 17.9277 41.6875C17.3777 41.3208 16.8278 41.1375 16.3695 41.1375ZM35.9833 48.5615C35.2501 48.5615 34.7002 48.8364 34.4252 49.3863C34.1503 50.2112 34.7918 51.2194 35.9833 51.6777C36.3499 51.861 36.8082 51.9526 37.1748 51.9526C37.9081 51.9526 38.458 51.6777 38.7329 51.1277C39.0079 50.3029 38.3663 49.2947 37.1748 48.8364C36.8082 48.6531 36.3499 48.5615 35.9833 48.5615ZM38.0914 39.3961C37.5414 39.3961 37.0832 39.5794 36.8082 40.0377C36.35 40.7709 36.8999 41.8708 37.9997 42.5123C38.458 42.7873 39.0079 42.9706 39.4662 42.9706C40.0161 42.9706 40.4743 42.7873 40.7493 42.329C41.2076 41.5958 40.6577 40.496 39.5578 39.8544C39.0079 39.5794 38.5496 39.3961 38.0914 39.3961ZM28.2845 32.8888C27.8262 32.8888 27.4596 33.0721 27.2763 33.347C26.7264 33.9886 27.093 35.1801 28.0095 36.005C28.5594 36.4632 29.201 36.6465 29.7509 36.6465C30.2092 36.6465 30.5758 36.4632 30.7591 36.1883C31.309 35.5467 30.9424 34.3552 30.0259 33.5303C29.476 33.1637 28.8344 32.8888 28.2845 32.8888ZM20.3106 20.5156C19.944 20.5156 19.6691 20.6072 19.3941 20.8822C18.7525 21.5237 19.0275 22.7152 19.8524 23.5401C20.4023 24.09 21.0439 24.365 21.6854 24.365C22.052 24.365 22.327 24.2733 22.602 23.9984C23.2435 23.3568 22.9686 22.1653 22.1437 21.3404C21.5938 20.7905 20.9522 20.5156 20.3106 20.5156ZM17.7443 30.4141C17.2861 30.4141 16.9195 30.5974 16.6445 30.8724C16.0946 31.514 16.4612 32.7054 17.4694 33.5303C18.0193 33.9886 18.6609 34.1719 19.1191 34.1719C19.5774 34.1719 19.944 33.9886 20.219 33.7136C20.7689 33.0721 20.4023 31.8806 19.3941 31.0557C18.8442 30.6891 18.2026 30.4141 17.7443 30.4141Z" fill="#050505"/>
<path d="M80.6534 25.0909H86.8182V61.483C86.8182 64.7311 86.2216 67.4903 85.0284 69.7607C83.8352 72.031 82.1532 73.7545 79.9822 74.9311C77.8113 76.1077 75.2509 76.696 72.3011 76.696C69.517 76.696 67.0395 76.1906 64.8686 75.1797C62.6977 74.1522 60.9908 72.6939 59.7479 70.8047C58.505 68.9155 57.8835 66.67 57.8835 64.0682H63.9489C63.9489 65.5099 64.3052 66.7694 65.0178 67.8466C65.7469 68.9072 66.7412 69.7358 68.0007 70.3324C69.2602 70.929 70.6937 71.2273 72.3011 71.2273C74.0743 71.2273 75.5824 70.8544 76.8253 70.1087C78.0682 69.3629 79.0128 68.2692 79.6591 66.8274C80.322 65.3691 80.6534 63.5876 80.6534 61.483V25.0909ZM109.613 76.8949C107.193 76.8949 104.998 76.4392 103.026 75.5277C101.054 74.5997 99.4875 73.2656 98.3274 71.5256C97.1674 69.7689 96.5874 67.6477 96.5874 65.1619C96.5874 62.9744 97.0182 61.2012 97.88 59.8423C98.7417 58.4669 99.8935 57.3897 101.335 56.6108C102.777 55.8319 104.368 55.2519 106.108 54.8707C107.865 54.473 109.629 54.1581 111.403 53.9261C113.723 53.6278 115.604 53.4041 117.045 53.255C118.504 53.0893 119.564 52.8158 120.227 52.4347C120.907 52.0535 121.246 51.3906 121.246 50.446V50.2472C121.246 47.7945 120.575 45.8887 119.233 44.5298C117.907 43.1709 115.894 42.4915 113.192 42.4915C110.392 42.4915 108.196 43.1046 106.605 44.331C105.014 45.5573 103.896 46.8665 103.249 48.2585L97.6811 46.2699C98.6754 43.9498 100.001 42.1435 101.658 40.8509C103.332 39.5417 105.155 38.6302 107.127 38.1165C109.116 37.5862 111.071 37.321 112.994 37.321C114.22 37.321 115.629 37.4702 117.219 37.7685C118.827 38.0502 120.376 38.6385 121.868 39.5334C123.376 40.4283 124.627 41.7789 125.621 43.5852C126.616 45.3916 127.113 47.8111 127.113 50.8438V76H121.246V70.8295H120.948C120.55 71.6581 119.888 72.5447 118.96 73.4893C118.031 74.4339 116.797 75.2377 115.256 75.9006C113.714 76.5634 111.834 76.8949 109.613 76.8949ZM110.508 71.625C112.828 71.625 114.783 71.1693 116.374 70.2578C117.982 69.3464 119.192 68.1697 120.004 66.728C120.832 65.2862 121.246 63.7699 121.246 62.179V56.8097C120.998 57.108 120.451 57.3814 119.606 57.63C118.777 57.862 117.816 58.0691 116.722 58.2514C115.645 58.4171 114.593 58.5663 113.565 58.6989C112.554 58.8149 111.734 58.9143 111.104 58.9972C109.58 59.196 108.155 59.5192 106.829 59.9666C105.52 60.3975 104.459 61.0521 103.647 61.9304C102.852 62.7921 102.454 63.9687 102.454 65.4602C102.454 67.4986 103.208 69.0398 104.716 70.0838C106.241 71.1113 108.171 71.625 110.508 71.625ZM153.829 76.7955C150.15 76.7955 146.977 75.9834 144.308 74.3594C141.657 72.7188 139.61 70.4318 138.169 67.4986C136.743 64.5488 136.031 61.1184 136.031 57.2074C136.031 53.2964 136.743 49.8494 138.169 46.8665C139.61 43.867 141.615 41.5303 144.184 39.8565C146.769 38.1662 149.785 37.321 153.232 37.321C155.221 37.321 157.185 37.6525 159.124 38.3153C161.063 38.9782 162.828 40.0554 164.419 41.5469C166.009 43.0218 167.277 44.9773 168.222 47.4134C169.166 49.8494 169.639 52.849 169.639 56.4119V58.8977H140.207V53.8267H163.673C163.673 51.6723 163.242 49.75 162.38 48.0597C161.535 46.3693 160.325 45.0353 158.751 44.0575C157.193 43.0798 155.354 42.5909 153.232 42.5909C150.896 42.5909 148.874 43.1709 147.167 44.331C145.477 45.4744 144.176 46.9659 143.264 48.8054C142.353 50.6449 141.897 52.6169 141.897 54.7216V58.1023C141.897 60.9858 142.394 63.4302 143.389 65.4354C144.4 67.424 145.8 68.9403 147.59 69.9844C149.379 71.0118 151.459 71.5256 153.829 71.5256C155.37 71.5256 156.762 71.3101 158.005 70.8793C159.265 70.4318 160.35 69.7689 161.262 68.8906C162.173 67.9957 162.877 66.8854 163.374 65.5597L169.042 67.1506C168.445 69.0729 167.443 70.7633 166.034 72.2216C164.626 73.6634 162.886 74.7902 160.814 75.6023C158.743 76.3977 156.414 76.7955 153.829 76.7955ZM184.429 53.0312V76H178.563V25.0909H184.429V43.7841H184.926C185.821 41.812 187.164 40.246 188.953 39.0859C190.76 37.9093 193.163 37.321 196.162 37.321C198.764 37.321 201.043 37.843 202.998 38.8871C204.954 39.9145 206.47 41.4972 207.547 43.6349C208.641 45.7562 209.188 48.4574 209.188 51.7386V76H203.321V52.1364C203.321 49.1037 202.534 46.7588 200.96 45.1016C199.402 43.4278 197.239 42.5909 194.472 42.5909C192.549 42.5909 190.826 42.9969 189.301 43.8089C187.793 44.621 186.6 45.8059 185.722 47.3636C184.86 48.9214 184.429 50.8106 184.429 53.0312ZM235.431 76.7955C231.984 76.7955 228.96 75.9751 226.358 74.3345C223.773 72.6939 221.751 70.3987 220.293 67.4489C218.851 64.4991 218.13 61.0521 218.13 57.108C218.13 53.1307 218.851 49.6589 220.293 46.6925C221.751 43.7261 223.773 41.4226 226.358 39.782C228.96 38.1413 231.984 37.321 235.431 37.321C238.878 37.321 241.895 38.1413 244.48 39.782C247.082 41.4226 249.103 43.7261 250.545 46.6925C252.003 49.6589 252.733 53.1307 252.733 57.108C252.733 61.0521 252.003 64.4991 250.545 67.4489C249.103 70.3987 247.082 72.6939 244.48 74.3345C241.895 75.9751 238.878 76.7955 235.431 76.7955ZM235.431 71.5256C238.05 71.5256 240.204 70.8544 241.895 69.5121C243.585 68.1697 244.836 66.4048 245.648 64.2173C246.46 62.0298 246.866 59.66 246.866 57.108C246.866 54.5559 246.46 52.1778 245.648 49.9737C244.836 47.7696 243.585 45.9882 241.895 44.6293C240.204 43.2704 238.05 42.5909 235.431 42.5909C232.813 42.5909 230.659 43.2704 228.968 44.6293C227.278 45.9882 226.027 47.7696 225.215 49.9737C224.403 52.1778 223.997 54.5559 223.997 57.108C223.997 59.66 224.403 62.0298 225.215 64.2173C226.027 66.4048 227.278 68.1697 228.968 69.5121C230.659 70.8544 232.813 71.5256 235.431 71.5256ZM282.171 76V25.0909H299.372C303.366 25.0909 306.631 25.8118 309.166 27.2535C311.718 28.6787 313.608 30.6094 314.834 33.0455C316.06 35.4815 316.673 38.1993 316.673 41.1989C316.673 44.1984 316.06 46.9245 314.834 49.3771C313.624 51.8298 311.752 53.7853 309.216 55.2436C306.681 56.6854 303.432 57.4062 299.472 57.4062H287.142V51.9375H299.273C302.007 51.9375 304.203 51.4652 305.86 50.5206C307.517 49.576 308.719 48.3 309.465 46.6925C310.227 45.0684 310.608 43.2372 310.608 41.1989C310.608 39.1605 310.227 37.3376 309.465 35.7301C308.719 34.1226 307.509 32.8632 305.835 31.9517C304.162 31.0237 301.941 30.5597 299.173 30.5597H288.335V76H282.171ZM326.604 76V25.0909H357.13V30.5597H332.769V47.7614H354.843V53.2301H332.769V76H326.604Z" fill="#0D0C0C"/>
</svg>
